<svg width="1434" height="428" viewBox="0 0 1434 428" fill="none" xmlns="http://www.w3.org/2000/svg">
<rect x="1093.19" y="77.5858" width="213.132" height="305.043" stroke="#400E92"/>
<line x1="1022.78" y1="77.5392" x2="1411.92" y2="77.5392" stroke="#400E92"/>
<line x1="998.128" y1="262.458" x2="1387.26" y2="262.458" stroke="#400E92"/>
<line x1="1044.87" y1="382.629" x2="1434" y2="382.629" stroke="#400E92"/>
<line x1="1185.67" y1="428" x2="1185.67" y2="-2.3134e-08" stroke="#400E92"/>
<line x1="1052.48" y1="129.511" x2="1306.83" y2="129.511" stroke="#400E92"/>
<path d="M1306.78 169.227C1306.78 220.516 1266.5 262.067 1216.85 262.067C1167.19 262.067 1126.91 220.516 1126.91 169.227C1126.91 117.937 1167.19 76.3864 1216.85 76.3864C1266.5 76.3864 1306.78 117.937 1306.78 169.227Z" stroke="#400E92"/>
<path d="M1185.23 129.007H1136.5H1094.06V382.468H1185.23V129.007Z" stroke="#400E92"/>
<path d="M1185.23 127.489H1136.66C1133.43 133.43 1121.28 161.439 1132.62 199.631C1141.68 230.186 1171.47 250.272 1185.23 256.496V127.489Z" fill="#400E92" stroke="#400E92"/>
<rect x="-0.5" y="0.5" width="213.132" height="298.608" transform="matrix(-1 0 0 1 340.307 80.4648)" stroke="#400E92"/>
<line y1="-0.5" x2="389.133" y2="-0.5" transform="matrix(-1 0 0 1 411.216 81.3982)" stroke="#400E92"/>
<line y1="-0.5" x2="389.133" y2="-0.5" transform="matrix(-1 0 0 1 435.872 262.428)" stroke="#400E92"/>
<line y1="-0.5" x2="389.133" y2="-0.5" transform="matrix(-1 0 0 1 389.133 380.073)" stroke="#400E92"/>
<line y1="-0.5" x2="419" y2="-0.5" transform="matrix(-4.21831e-08 -1 -1 4.5295e-08 247.828 424)" stroke="#400E92"/>
<line y1="-0.5" x2="254.349" y2="-0.5" transform="matrix(-1 9.05901e-08 8.43662e-08 1 381.524 132.277)" stroke="#400E92"/>
<path d="M127.215 170.668C127.215 220.864 167.487 261.546 217.153 261.546C266.82 261.546 307.092 220.864 307.092 170.668C307.092 120.473 266.82 79.7906 217.153 79.7906C167.487 79.7906 127.215 120.473 127.215 170.668Z" stroke="#400E92"/>
<path d="M248.77 131.294H297.5H339.943V379.426H248.77V131.294Z" stroke="#400E92"/>
<path d="M248.77 129.808H297.337C300.575 135.625 312.717 163.044 301.384 200.434C292.318 230.345 262.531 250.01 248.77 256.103V129.808Z" fill="#400E92" stroke="#400E92"/>
</svg>
