<svg width="280" height="173" viewBox="0 0 280 173" fill="none" xmlns="http://www.w3.org/2000/svg">
<rect width="280" height="173" rx="8" fill="#400E92"/>
<path d="M24.9 30.065L21.855 26.75L24.9 23.435H28.125L25.065 26.75L28.125 30.065H24.9ZM32.7567 24.815C33.0067 24.425 33.3517 24.11 33.7917 23.87C34.2317 23.63 34.7467 23.51 35.3367 23.51C36.0267 23.51 36.6517 23.685 37.2117 24.035C37.7717 24.385 38.2117 24.885 38.5317 25.535C38.8617 26.185 39.0267 26.94 39.0267 27.8C39.0267 28.66 38.8617 29.42 38.5317 30.08C38.2117 30.73 37.7717 31.235 37.2117 31.595C36.6517 31.945 36.0267 32.12 35.3367 32.12C34.7567 32.12 34.2417 32 33.7917 31.76C33.3517 31.52 33.0067 31.21 32.7567 30.83V35.99H30.1917V23.63H32.7567V24.815ZM36.4167 27.8C36.4167 27.16 36.2367 26.66 35.8767 26.3C35.5267 25.93 35.0917 25.745 34.5717 25.745C34.0617 25.745 33.6267 25.93 33.2667 26.3C32.9167 26.67 32.7417 27.175 32.7417 27.815C32.7417 28.455 32.9167 28.96 33.2667 29.33C33.6267 29.7 34.0617 29.885 34.5717 29.885C35.0817 29.885 35.5167 29.7 35.8767 29.33C36.2367 28.95 36.4167 28.44 36.4167 27.8ZM40.3874 23.435H43.6124L46.6574 26.75L43.6124 30.065H40.3874L43.4474 26.75L40.3874 23.435ZM54.6363 30.065L51.5913 26.75L54.6363 23.435H57.8613L54.8013 26.75L57.8613 30.065H54.6363ZM65.643 17.75L61.623 34.805H59.148L63.168 17.75H65.643ZM69.2899 24.815C69.5399 24.425 69.8849 24.11 70.3249 23.87C70.7649 23.63 71.2799 23.51 71.8699 23.51C72.5599 23.51 73.1849 23.685 73.7449 24.035C74.3049 24.385 74.7449 24.885 75.0649 25.535C75.3949 26.185 75.5599 26.94 75.5599 27.8C75.5599 28.66 75.3949 29.42 75.0649 30.08C74.7449 30.73 74.3049 31.235 73.7449 31.595C73.1849 31.945 72.5599 32.12 71.8699 32.12C71.2899 32.12 70.7749 32 70.3249 31.76C69.8849 31.52 69.5399 31.21 69.2899 30.83V35.99H66.7249V23.63H69.2899V24.815ZM72.9499 27.8C72.9499 27.16 72.7699 26.66 72.4099 26.3C72.0599 25.93 71.6249 25.745 71.1049 25.745C70.5949 25.745 70.1599 25.93 69.7999 26.3C69.4499 26.67 69.2749 27.175 69.2749 27.815C69.2749 28.455 69.4499 28.96 69.7999 29.33C70.1599 29.7 70.5949 29.885 71.1049 29.885C71.6149 29.885 72.0499 29.7 72.4099 29.33C72.7699 28.95 72.9499 28.44 72.9499 27.8ZM76.9206 23.435H80.1456L83.1906 26.75L80.1456 30.065H76.9206L79.9806 26.75L76.9206 23.435Z" fill="white"/>
<path d="M53 54.4294C44.0715 43.6967 28 61.5844 28 61.5844C28 61.5844 36.9286 75 53 75C69.0715 75 78 61.5844 78 61.5844C78 61.5844 61.9285 43.6967 53 54.4294Z" fill="white"/>
</svg>
