<svg width="280" height="181" viewBox="0 0 280 181" fill="none" xmlns="http://www.w3.org/2000/svg">
<rect y="8" width="280" height="173" rx="8" fill="#400E92"/>
<path d="M86 20L86.0143 93.9272L114.319 25.6329L86.0412 93.9385L138.326 41.6741L86.0615 93.9588L154.367 65.6813L86.0728 93.9857L160 94L86.0728 94.0143L154.367 122.319L86.0615 94.0412L138.326 146.326L86.0412 94.0615L114.319 162.367L86.0143 94.0728L86 168L85.9857 94.0728L57.6813 162.367L85.9588 94.0615L33.6741 146.326L85.9385 94.0412L17.6329 122.319L85.9272 94.0143L12 94L85.9272 93.9857L17.6329 65.6813L85.9385 93.9588L33.6741 41.6741L85.9588 93.9385L57.6813 25.6329L85.9857 93.9272L86 20Z" fill="#F0C3D2" stroke="white" stroke-width="4"/>
<path fill-rule="evenodd" clip-rule="evenodd" d="M239.635 84.9413C225.046 102.675 198.843 105.224 181.11 90.6352C163.376 76.0461 160.827 49.8435 175.416 32.1097C190.005 14.376 216.208 11.8268 233.941 26.4158C251.675 41.005 254.224 67.2076 239.635 84.9413ZM203.463 46.0109C206.484 48.4963 210.949 48.062 213.434 45.0406C215.92 42.0195 215.486 37.5551 212.464 35.0697C209.443 32.5841 204.979 33.0185 202.493 36.0396C200.008 39.061 200.442 43.5253 203.463 46.0109ZM220.588 60.0992C223.61 62.5848 228.074 62.1505 230.56 59.1291C233.045 56.108 232.611 51.6436 229.589 49.158C226.568 46.6726 222.104 47.107 219.619 50.1281C217.133 53.1495 217.567 57.6138 220.588 60.0992ZM198.567 69.9001C191.211 63.8484 190.153 52.979 196.205 45.623L190.496 40.9268C181.851 51.4355 183.362 66.9633 193.87 75.6086C204.379 84.254 219.907 82.7431 228.552 72.2344L222.844 67.5382C216.792 74.8942 205.923 75.9519 198.567 69.9001Z" fill="white"/>
<path fill-rule="evenodd" clip-rule="evenodd" d="M231 118.924C231 123.844 227.42 127.928 222.722 128.712C227.42 129.496 231 133.58 231 138.5C231 143.42 227.42 147.504 222.722 148.288C227.42 149.072 231 153.156 231 158.076C231 163.557 226.557 168 221.076 168C216.156 168 212.072 164.42 211.288 159.722C210.504 164.42 206.42 168 201.5 168C196.58 168 192.496 164.42 191.712 159.722C190.928 164.42 186.844 168 181.924 168C176.443 168 172 163.557 172 158.076C172 153.156 175.58 149.072 180.278 148.288C175.58 147.504 172 143.42 172 138.5C172 133.58 175.58 129.496 180.278 128.712C175.58 127.928 172 123.844 172 118.924C172 113.443 176.443 109 181.924 109C186.844 109 190.928 112.58 191.712 117.278C192.496 112.58 196.58 109 201.5 109C206.42 109 210.504 112.58 211.288 117.278C212.072 112.58 216.156 109 221.076 109C226.557 109 231 113.443 231 118.924ZM191.712 120.57C191.017 124.732 187.732 128.017 183.57 128.712C187.732 129.407 191.017 132.692 191.712 136.854C192.407 132.692 195.692 129.407 199.854 128.712C195.692 128.017 192.407 124.732 191.712 120.57ZM203.146 128.712C207.308 128.017 210.593 124.732 211.288 120.57C211.983 124.732 215.268 128.017 219.43 128.712C215.268 129.407 211.983 132.692 211.288 136.854C210.593 132.692 207.308 129.407 203.146 128.712ZM211.288 156.43C211.983 152.268 215.268 148.983 219.43 148.288C215.268 147.593 211.983 144.308 211.288 140.146C210.593 144.308 207.308 147.593 203.146 148.288C207.308 148.983 210.593 152.268 211.288 156.43ZM191.712 140.146C192.407 144.308 195.692 147.593 199.854 148.288C195.692 148.983 192.407 152.268 191.712 156.43C191.017 152.268 187.732 148.983 183.57 148.288C187.732 147.593 191.017 144.308 191.712 140.146Z" fill="white"/>
</svg>
