<svg width="11" height="11" viewBox="0 0 11 11" fill="none" xmlns="http://www.w3.org/2000/svg">
<path d="M5.35322 0.130384C5.37387 -0.0434613 5.62613 -0.0434613 5.64678 0.130384L5.81982 1.58879C6.04327 3.47198 7.52802 4.95673 9.4112 5.18018L10.8696 5.35322C11.0435 5.37387 11.0435 5.62613 10.8696 5.64678L9.4112 5.81982C7.52802 6.04327 6.04327 7.52802 5.81982 9.4112L5.64678 10.8696C5.62613 11.0435 5.37387 11.0435 5.35322 10.8696L5.18018 9.4112C4.95673 7.52802 3.47198 6.04327 1.58879 5.81982L0.130384 5.64678C-0.0434613 5.62613 -0.0434613 5.37387 0.130384 5.35322L1.58879 5.18018C3.47198 4.95673 4.95673 3.47198 5.18018 1.58879L5.35322 0.130384Z" fill="#D8D8D8"/>
</svg>
